<svg viewBox="0 0 230 24" xmlns="http://www.w3.org/2000/svg" xmlns:xlink="http://www.w3.org/1999/xlink" width="230.000000" height="24.000000" fill="none">
	<defs>
		<filter id="pixso_custom_mask_type_outline">
			<feColorMatrix type="matrix" values="0 0 0 0 1 0 0 0 0 1 0 0 0 0 1 0 0 0 1 0 " />
		</filter>
	</defs>
	<mask id="mask_0" width="230.000000" height="24.000000" x="0.000000" y="0.000000" maskUnits="userSpaceOnUse">
		<g filter="url(#pixso_custom_mask_type_outline)">
			<g id="clip0_433_94">
				<path id="Vector" d="M230 0L0 0L0 24L230 24L230 0Z" fill="rgb(255,255,255)" fill-rule="evenodd" />
			</g>
		</g>
	</mask>
	<rect id="logo 1" width="230.000000" height="24.000000" x="0.000000" y="0.000000" fill="rgb(255,255,255)" fill-opacity="0" />
	<g id="Clip path group" mask="url(#mask_0)">
		<g id="Group">
			<path id="Vector" d="M55.2702 2.28329L47.4454 10.6554C50.5626 14.3594 53.6798 18.0761 56.8225 21.7675L52.7129 21.7675L44.4173 11.7336L44.4173 21.7675L41.1473 21.7675L41.1473 2.28329L44.4173 2.28329L44.4173 9.71671C46.6946 7.24313 48.9467 4.75687 51.1987 2.28329L55.2702 2.28329ZM76.7853 18.1522L67.4974 18.1522L66.1614 21.7675L62.6752 21.7675L70.5382 2.28329L73.7955 2.28329L81.6457 21.7675L78.1978 21.7675L76.7853 18.1522ZM68.7061 15.222L75.704 15.222L72.1541 6.19027L68.7061 15.222ZM97.4608 21.8055C96.1602 21.8433 94.8654 21.6182 93.6543 21.144C92.4432 20.6697 91.3407 19.956 90.4135 19.0459C89.4863 18.1356 88.7536 17.0479 88.2591 15.8479C87.7647 14.6479 87.5189 13.3606 87.5366 12.0634C87.5366 9.4393 88.5823 6.92265 90.4434 5.0671C92.3045 3.21156 94.8288 2.16914 97.4608 2.16914C100.093 2.16914 102.617 3.21156 104.478 5.0671C106.339 6.92265 107.385 9.4393 107.385 12.0634C107.396 13.3624 107.143 14.6502 106.642 15.8492C106.141 17.0483 105.401 18.1337 104.468 19.0404C103.535 19.9471 102.428 20.6561 101.212 21.1246C99.9971 21.5933 98.6995 21.8121 97.3973 21.7675L97.4608 21.8055ZM97.4608 5.31501C96.5773 5.29683 95.6994 5.45949 94.8815 5.7929C94.0635 6.12631 93.3228 6.62342 92.7051 7.2535C92.0874 7.88359 91.6059 8.63326 91.2903 9.45619C90.9746 10.2791 90.8316 11.1578 90.8701 12.0381C90.8701 13.7807 91.5645 15.4521 92.8005 16.6843C94.0365 17.9165 95.713 18.6089 97.4608 18.6089C99.2088 18.6089 100.885 17.9165 102.121 16.6843C103.357 15.4521 104.051 13.7807 104.051 12.0381C104.094 11.1509 103.952 10.2645 103.634 9.43478C103.316 8.60506 102.829 7.85002 102.204 7.21721C101.579 6.5844 100.829 6.08757 100.002 5.75799C99.1744 5.42842 98.2876 5.27328 97.3973 5.30232L97.4608 5.31501ZM129.867 2.28329L122.042 10.6554C125.16 14.3594 128.277 18.0761 131.419 21.7675L127.31 21.7675L119.014 11.7336L119.014 21.7675L115.783 21.7675L115.783 2.28329L119.052 2.28329L119.052 9.71671C121.33 7.24313 123.582 4.75687 125.847 2.28329L129.867 2.28329ZM151.408 18.1522L142.12 18.1522L140.72 21.7675L137.298 21.7675L145.135 2.28329L148.367 2.28329L156.217 21.7675L152.795 21.7675L151.408 18.1522ZM143.24 15.222L150.237 15.222L146.751 6.22833L143.24 15.222ZM177.936 2.28329L170.111 10.6554C173.228 14.3594 176.358 18.0761 179.488 21.7675L175.392 21.7675L167.083 11.7336L167.083 21.7675L163.813 21.7675L163.813 2.28329L167.083 2.28329L167.083 9.71671C169.36 7.24313 171.613 4.75687 173.877 2.28329L177.936 2.28329ZM199.451 18.1522L190.176 18.1522L188.763 21.7675L185.354 21.7675L193.203 2.28329L196.435 2.28329L204.286 21.7675L200.864 21.7675L199.451 18.1522ZM191.32 15.222L198.306 15.222L194.82 6.22833L191.32 15.222ZM220.113 21.7675C218.814 21.8035 217.522 21.5772 216.312 21.1022C215.101 20.6271 214.001 19.9131 213.074 19.003C212.149 18.0931 211.418 17.0059 210.924 15.8068C210.429 14.6077 210.184 13.3214 210.203 12.0254C210.203 9.40125 211.248 6.88459 213.109 5.02905C214.971 3.1735 217.494 2.13108 220.127 2.13108C222.758 2.13108 225.283 3.1735 227.144 5.02905C229.004 6.88459 230.051 9.40125 230.051 12.0254C230.067 13.3231 229.82 14.6107 229.324 15.8107C228.828 17.0108 228.093 18.0984 227.166 19.0085C226.238 19.9185 225.134 20.6319 223.922 21.1061C222.71 21.5801 221.414 21.8052 220.113 21.7675ZM220.113 5.27695C219.231 5.25878 218.352 5.42143 217.535 5.75484C216.717 6.08825 215.975 6.58536 215.359 7.21545C214.741 7.84553 214.259 8.59521 213.943 9.41813C213.627 10.2411 213.485 11.1198 213.524 12C213.524 13.7427 214.218 15.414 215.453 16.6463C216.689 17.8785 218.366 18.5709 220.113 18.5709C221.862 18.5709 223.538 17.8785 224.773 16.6463C226.011 15.414 226.704 13.7427 226.704 12C226.742 11.1214 226.596 10.2446 226.28 9.42387C225.965 8.60309 225.482 7.85577 224.864 7.22805C224.247 6.60034 223.507 6.10558 222.69 5.77437C221.873 5.44313 220.996 5.28249 220.113 5.30232L220.113 5.27695ZM18.0418 24L24.0599 24L24.0599 18C24.0599 16.4087 23.4258 14.8826 22.2971 13.7574C21.1686 12.6321 19.6379 12 18.0418 12C16.4879 11.9989 14.9941 12.5982 13.8742 13.6722C12.7543 14.7461 12.0955 16.211 12.0363 17.759L12.0363 18.2664C12.1019 19.8099 12.7635 21.2685 13.8827 22.337C15.0019 23.4055 16.4921 24.0014 18.0418 24ZM12.0363 12L12.0363 17.759C12.0296 17.8435 12.0296 17.9282 12.0363 18.0127C12.0296 18.0972 12.0296 18.1819 12.0363 18.2664L12.0363 24.0127L0 24.0127L0 0C3.12498 0.00172639 6.12677 1.2151 8.37063 3.38354C10.6145 5.55197 11.9245 8.50546 12.0236 11.6194L12.0236 12L12.0363 12ZM12.0363 12L17.889 12C19.5268 11.9966 21.0963 11.3456 22.2532 10.1899C23.4101 9.03408 24.0599 7.46793 24.0599 5.8351L24.0599 0L18.1944 0C16.5578 0 14.9882 0.648178 13.831 1.80194C12.6737 2.9557 12.0236 4.52055 12.0236 6.15221L12.0236 11.6194C12.0236 11.7463 12.0236 11.8731 12.0236 12L12.0363 12Z" fill="rgb(17.85,17.85,17.85)" fill-rule="nonzero" />
		</g>
	</g>
</svg>
