<svg width="80" height="80" viewBox="0 0 80 80" fill="none" xmlns="http://www.w3.org/2000/svg">
<path d="M78.3144 36.8252V43.0872C78.1935 43.2047 78.1234 43.3645 78.1189 43.5326C78.0025 44.5927 77.8151 45.644 77.5579 46.6793C77.1097 48.5969 76.4567 50.4614 75.6099 52.2408C72.7725 58.2098 67.9838 63.0445 62.0268 65.9546C59.4753 67.1973 56.7512 68.0528 53.945 68.4928C51.968 68.8115 49.9624 68.9187 47.9624 68.8127C47.3089 68.7751 46.6533 68.7583 46.004 68.6643C45.7014 68.6203 45.5522 68.7437 45.5606 69.0531C45.5606 69.1598 45.5606 69.2622 45.5606 69.373C45.5606 71.9239 45.5606 74.4726 45.5606 77.0213C45.5606 77.3913 45.4261 77.5712 45.0647 77.6172C44.3922 77.705 43.7198 77.8032 43.0495 77.9036C42.7826 77.9454 42.4947 77.9141 42.2657 78.1127H37.1804C37.1027 77.981 36.9703 77.9789 36.8379 77.9642C35.3925 77.8132 33.9598 77.5589 32.5511 77.2032C25.5309 75.4256 19.4326 71.1 15.4545 65.0764C12.3146 60.3419 10.6608 54.7852 10.7034 49.113C10.7005 48.2005 10.744 47.2884 10.8337 46.3803C10.9219 45.6129 10.8778 45.5983 10.1108 45.5983H2.17188C1.87349 45.5983 1.62763 45.5669 1.56669 45.2052C1.30735 43.8999 1.14093 42.578 1.06867 41.2494C1.00818 39.9587 1.04118 38.6653 1.16743 37.3793C1.40094 35.105 1.87785 32.8621 2.59005 30.6887C4.67236 24.5511 8.76519 19.2867 14.2126 15.7393C16.5441 14.2087 19.0886 13.0266 21.7649 12.2309C23.8912 11.6035 26.0822 11.2184 28.2959 11.083C29.9006 10.993 31.5098 11.0224 33.1101 11.1708C33.6312 11.2147 33.6754 11.198 33.6754 10.6878C33.6754 8.51757 33.6754 6.3466 33.6754 4.17493C33.6754 3.57069 33.8014 2.96644 33.7111 2.36428C33.6585 2.01302 33.7867 1.83739 34.1103 1.78512C35.1904 1.60322 36.2684 1.30423 37.3506 1.28333C39.286 1.24778 41.2213 1.14742 43.163 1.42132C46.1115 1.80295 48.9901 2.60206 51.7113 3.7944C55.4814 5.49109 58.8446 7.96825 61.5764 11.0606C64.3082 14.153 66.3459 17.7894 67.5534 21.7274C68.3572 24.4115 68.7815 27.1939 68.8142 29.9945C68.8167 31.0023 68.7634 32.0096 68.6545 33.0116C68.5893 33.7203 68.4548 33.7622 69.4257 33.8228C69.5657 33.8298 69.7059 33.8298 69.8459 33.8228C70.4406 33.8082 71.0374 33.7475 71.63 33.7789C72.8677 33.8416 74.1054 33.8019 75.3431 33.827C75.9987 33.8395 76.6543 33.8374 77.3099 33.827C77.3691 33.8174 77.4296 33.8205 77.4875 33.8362C77.5453 33.8518 77.5991 33.8796 77.6453 33.9176C77.6914 33.9556 77.7289 34.003 77.7552 34.0566C77.7814 34.1102 77.7958 34.1688 77.7974 34.2284C77.8941 34.8849 78.058 35.531 78.1147 36.1938C78.1316 36.4175 78.1232 36.6559 78.3144 36.8252ZM28.4892 45.5126H33.1752C33.7888 45.5126 33.8203 45.5439 33.8203 46.1545C33.8203 49.1318 33.8203 52.1091 33.8203 55.0865C33.8031 55.5128 33.8673 55.9384 34.0095 56.3409C34.5285 57.6686 35.4468 58.553 36.8925 58.7475C38.5631 58.9691 40.2442 58.9106 41.9253 58.8228C43.9846 58.7161 45.4786 57.1794 45.4807 55.1199C45.4807 52.1426 45.4807 49.1652 45.4807 46.1879C45.4807 45.5251 45.4955 45.5126 46.1616 45.5126H55.21C55.5196 45.5346 55.8307 45.5092 56.1325 45.4373C57.6392 44.9627 58.5196 43.9215 58.8306 42.4077C59.0408 41.3623 58.9147 40.2793 58.9294 39.215C58.9693 38.446 58.9263 37.675 58.8012 36.9151C58.4986 35.4139 57.0319 33.9462 55.292 33.9671C52.2639 34.0047 49.2359 33.9671 46.2078 33.9671C45.5123 33.9671 45.4807 33.9357 45.4807 33.2436C45.4807 30.2663 45.4807 27.2897 45.4807 24.3137C45.5009 23.6567 45.3286 23.008 44.9848 22.4466C44.1926 21.213 43.0285 20.6067 41.5617 20.5942C40.2631 20.5816 38.9645 20.5942 37.6637 20.5942C37.1554 20.5839 36.6502 20.676 36.1785 20.8651C35.7069 21.0541 35.2786 21.3362 34.9193 21.6942C34.5601 22.0522 34.2773 22.4789 34.0881 22.9484C33.8989 23.418 33.8071 23.9208 33.8182 24.4266C33.8182 27.3914 33.8182 30.3569 33.8182 33.3231C33.8182 33.9503 33.7909 33.9692 33.1773 33.9692C30.1598 33.9692 27.1443 33.9838 24.1289 33.9692C23.2628 33.9495 22.4206 34.2522 21.767 34.818C21.1765 35.3177 20.6953 35.9324 20.5944 36.7186C20.3644 38.5785 20.3306 40.4572 20.4936 42.3241C20.6196 43.8587 22.1747 45.5649 23.9818 45.5251C25.4843 45.4854 26.9867 45.5126 28.4892 45.5126ZM42.5515 36.5388C42.6313 36.1373 42.562 36.0934 42.1585 36.1206C41.4272 36.1791 40.6876 36.2921 39.9647 36.06C39.7209 35.9826 39.6264 36.0767 39.6789 36.3276C39.784 36.8189 40.1412 37.0845 40.7296 37.1075C41.1646 37.1242 41.2003 37.1639 41.1309 37.5967C41.0868 37.8664 41.028 38.132 40.9754 38.3996C40.7989 39.2673 40.6161 40.1329 40.448 41.0027C40.3219 41.6529 40.1874 42.3011 40.1097 42.9555C40.0508 43.4448 40.2232 43.5828 40.7212 43.4803C40.9754 43.4322 41.2801 43.4092 41.3054 43.0308C41.36 42.1944 41.6143 41.4083 41.7256 40.5887C41.7382 40.5009 41.7677 40.3796 41.879 40.3796C41.9904 40.3796 41.9967 40.4842 42.0387 40.5511C42.3918 41.1009 42.7238 41.6655 43.1041 42.1944C43.5454 42.8112 43.9993 43.428 44.6906 43.8065C45.382 44.1849 46.5924 43.6559 46.7563 42.8949C46.7731 42.8091 46.792 42.7255 46.71 42.667C46.6738 42.6457 46.6321 42.6357 46.5901 42.6383C46.5481 42.641 46.5079 42.656 46.4747 42.6816C46.3549 42.7569 46.2393 42.8426 46.1133 42.9095C45.6636 43.1458 45.4639 43.1186 45.0836 42.7862C44.9841 42.7015 44.8901 42.6107 44.802 42.5143C44.123 41.7648 43.5406 40.9339 43.0684 40.0409C42.8372 39.606 42.8583 39.5496 43.2554 39.2527C44.036 38.6855 44.769 38.0562 45.4471 37.3709C45.8926 36.9151 45.8401 36.566 45.3168 36.2042C45.0836 36.0432 44.9218 36.0662 44.8146 36.3297C44.407 37.3354 43.6379 38.0379 42.8225 38.7007C42.5854 38.9256 42.3101 39.1068 42.0093 39.2359C42.2005 38.2992 42.375 37.4274 42.5515 36.5388ZM39.3994 43.5117C38.8048 43.5117 38.7858 43.5117 38.5757 42.9409C38.458 42.6293 38.3425 42.3136 38.2353 42.0042C38.2104 41.8995 38.1486 41.8073 38.061 41.7443C37.9734 41.6814 37.8659 41.6519 37.7583 41.6613C36.9177 41.6613 36.0919 41.6613 35.2577 41.6613C35.1438 41.6522 35.0304 41.6838 34.938 41.7505C34.8455 41.8172 34.78 41.9146 34.7533 42.0251C34.6336 42.3847 34.5096 42.7422 34.3751 43.0977C34.2406 43.4531 33.503 43.6894 33.1689 43.4448C33.0092 43.3277 33.0912 43.1939 33.1395 43.0621C33.7825 41.3038 34.4444 39.5516 35.1841 37.8351C35.3943 37.3667 35.6044 36.9068 35.7914 36.4321C35.9343 36.0683 36.2117 36.0328 36.5374 36.0349C36.8631 36.037 37.0942 36.0892 37.2497 36.428C38.1701 38.408 38.9518 40.4444 39.6978 42.4913C39.7672 42.6816 39.8407 42.8677 39.908 43.058C40.0424 43.4259 39.9962 43.4991 39.6117 43.5179C39.536 43.5138 39.4646 43.5117 39.3931 43.5117H39.3994ZM36.5185 40.6577C36.8043 40.6577 37.09 40.6577 37.3758 40.6577C37.5755 40.6577 37.7163 40.5657 37.6322 40.3441C37.3044 39.491 36.9682 38.6421 36.6341 37.7933C36.6088 37.7285 36.5836 37.6469 36.5017 37.6406C36.4197 37.6344 36.3882 37.718 36.363 37.7807C36.01 38.6171 35.6632 39.4534 35.3838 40.3002C35.3018 40.549 35.4132 40.6598 35.6611 40.6619L36.5185 40.6577Z" fill="#14968C"/>
<path d="M39.6674 60.7929C51.3959 60.7929 60.9037 51.3327 60.9037 39.6631C60.9037 27.9934 51.3959 18.5332 39.6674 18.5332C27.939 18.5332 18.4312 27.9934 18.4312 39.6631C18.4312 51.3327 27.939 60.7929 39.6674 60.7929Z" fill="#969696"/>
<path d="M42.4167 68.6657C12.9515 59.4326 20.9387 33.4855 20.9387 33.4855C22.549 28.5842 26.0167 24.5008 30.605 22.1031C31.7673 21.4559 32.9923 20.927 34.2613 20.5245V20.3447C26.066 21.3525 15.6643 26.1091 10.4866 42.4677C6.39739 61.1827 20.9934 82.7579 45.6759 78.8731L45.7032 69.1842C44.5988 69.0726 43.5016 68.8995 42.4167 68.6657Z" fill="url(#paint0_linear_2227_479)"/>
<path d="M10.7166 42.4415C19.9983 13.1282 46.076 21.0754 46.076 21.0754C51.0017 22.6783 55.1054 26.1285 57.5158 30.6932C58.1671 31.8478 58.6987 33.0653 59.1023 34.327H59.283C58.2702 26.1728 53.4896 15.8232 37.0486 10.6715C18.2394 6.60899 -3.44232 21.1402 0.459891 45.6906L10.1976 45.7199C10.3097 44.6184 10.483 43.524 10.7166 42.4415Z" fill="url(#paint1_linear_2227_479)"/>
<path d="M36.9224 10.6629C66.3876 19.8981 58.4003 45.8452 58.4003 45.8452C56.7901 50.7465 53.3224 54.8299 48.7341 57.2276C47.5737 57.8756 46.35 58.4045 45.082 58.8062V58.986C53.2772 57.9782 63.6789 53.2216 68.8567 36.863C72.9396 18.148 58.3352 -3.42507 33.6611 0.457586L33.6233 10.1465C34.7317 10.2579 35.8331 10.4303 36.9224 10.6629Z" fill="url(#paint2_linear_2227_479)"/>
<path d="M68.6347 36.8766C59.3551 66.1941 33.2773 58.2469 33.2773 58.2469C28.3512 56.6448 24.2473 53.1944 21.8376 48.6291C21.1868 47.4747 20.6546 46.258 20.2489 44.9974H20.0703C21.0832 53.1516 25.8637 63.5012 42.3026 68.6529C61.1139 72.7217 82.7957 58.1988 78.8935 33.64L69.16 33.6045C69.0455 34.704 68.8701 35.7963 68.6347 36.8766Z" fill="url(#paint3_linear_2227_479)"/>
<path d="M28.5002 45.4319H33.1841C33.7998 45.4319 33.8313 45.4612 33.8313 46.0717C33.8313 49.0491 33.8313 52.0264 33.8313 55.0037C33.8128 55.4301 33.877 55.856 34.0205 56.2582C34.5374 57.5859 35.4557 58.4724 36.9035 58.6647C38.5741 58.8885 40.2552 58.8299 41.9342 58.7421C43.9956 58.6355 45.4896 57.0987 45.4917 55.0372C45.4917 52.0598 45.4917 49.0832 45.4917 46.1073C45.4917 45.4445 45.5065 45.4298 46.1747 45.4298C49.1894 45.4298 52.2056 45.4298 55.2231 45.4298C55.5326 45.4526 55.8437 45.4279 56.1456 45.3567C57.6523 44.882 58.5306 43.8408 58.8437 42.3271C59.0539 41.2816 58.9257 40.1986 58.9425 39.1323C58.9818 38.3632 58.9381 37.5922 58.8122 36.8324C58.5096 35.3312 57.045 33.8613 55.303 33.8843C52.277 33.9199 49.249 33.8843 46.2209 33.8843C45.5233 33.8843 45.4938 33.853 45.4938 33.163C45.4938 30.1857 45.4938 27.2083 45.4938 24.231C45.5113 23.5767 45.3368 22.9315 44.9916 22.3743C44.1973 21.1408 43.0353 20.5344 41.5685 20.5198C40.2699 20.5093 38.9691 20.5198 37.6705 20.5198C37.1621 20.5092 36.6567 20.6012 36.185 20.7901C35.7132 20.979 35.2847 21.2611 34.9254 21.6191C34.5661 21.9772 34.2834 22.404 34.0943 22.8737C33.9052 23.3434 33.8136 23.8464 33.825 24.3523C33.825 27.317 33.825 30.2818 33.825 33.2466C33.825 33.8739 33.7956 33.8927 33.182 33.8927C30.1666 33.8927 27.1511 33.9073 24.1357 33.8927C23.2689 33.8751 22.4265 34.1784 21.7717 34.7436C21.1833 35.2413 20.7021 35.8581 20.6012 36.6442C20.372 38.5 20.3404 40.3747 20.5067 42.2372C20.6306 43.7718 22.1877 45.4779 23.9949 45.4361C25.4953 45.4048 26.9977 45.4319 28.5002 45.4319Z" fill="white"/>
<path d="M42.5447 36.4552C42.6266 36.0538 42.5447 36.0099 42.1541 36.0371C41.4234 36.0935 40.6843 36.2064 39.962 35.9743C39.7184 35.897 39.6239 35.9932 39.6764 36.242C39.7814 36.7333 40.1383 37.0009 40.7263 37.0239C41.1609 37.0407 41.1966 37.0804 41.1273 37.5132C41.0832 37.7808 41.0244 38.0484 40.9699 38.314C40.7956 39.1817 40.6129 40.0494 40.4449 40.9191C40.3189 41.5673 40.1845 42.2175 40.1069 42.872C40.0481 43.3612 40.2202 43.4992 40.7158 43.3968C40.972 43.3487 41.2743 43.3257 41.2995 42.9472C41.3541 42.1109 41.6103 41.3227 41.7195 40.5031C41.7195 40.4173 41.7594 40.294 41.8728 40.294C41.9861 40.294 41.9882 40.3964 42.0323 40.4654C42.3851 41.0153 42.7169 41.5777 43.0948 42.1088C43.5379 42.7361 43.9914 43.3403 44.6822 43.7188C45.3731 44.0972 46.5825 43.5703 46.7442 42.8072C46.7631 42.7235 46.7799 42.6378 46.7001 42.5813C46.6639 42.5601 46.6222 42.5501 46.5803 42.5527C46.5383 42.5553 46.4982 42.5704 46.4649 42.596C46.3431 42.6712 46.2298 42.757 46.1038 42.8239C45.6523 43.0601 45.4528 43.033 45.0728 42.7005C44.9739 42.6146 44.8799 42.5231 44.7914 42.4266C44.1138 41.6776 43.5325 40.8475 43.0612 39.9553C42.8302 39.5204 42.8512 39.4618 43.246 39.1649C44.0276 38.599 44.7609 37.9696 45.4381 37.2832C45.8812 36.8253 45.8287 36.4782 45.308 36.1144C45.0749 35.9534 44.9111 35.9785 44.8061 36.2399C44.3988 37.2456 43.6282 37.9481 42.8134 38.613C42.5777 38.8379 42.3032 39.0185 42.0029 39.1461C42.194 38.2157 42.3704 37.3355 42.5447 36.4552Z" fill="#969696"/>
<path d="M39.889 42.9649C39.8197 42.7767 39.7442 42.5886 39.6791 42.4004C38.9357 40.3493 38.1525 38.3149 37.2349 36.337C37.0775 36.0004 36.8444 35.946 36.5231 35.9439C36.2019 35.9418 35.9205 35.9795 35.7777 36.3433C35.5929 36.8158 35.3704 37.2758 35.1688 37.7441C34.4318 39.467 33.7703 41.2212 33.1257 42.9712C33.0774 43.1029 32.9976 43.2367 33.1572 43.3538C33.489 43.5963 34.2176 43.3914 34.3625 43.0067C34.5074 42.622 34.6186 42.2917 34.7404 41.9341C34.7659 41.8234 34.8307 41.7255 34.9229 41.6586C35.0152 41.5918 35.1286 41.5604 35.2423 41.5703C36.0822 41.5703 36.9158 41.5703 37.7431 41.5703C37.8507 41.5609 37.958 41.5904 38.0456 41.6534C38.1331 41.7163 38.1949 41.8086 38.2197 41.9132C38.3268 42.2268 38.4423 42.5405 38.5578 42.8499C38.7678 43.4123 38.7867 43.4228 39.383 43.4207C39.4544 43.4207 39.5258 43.4207 39.593 43.4207C39.9751 43.4082 40.0234 43.335 39.889 42.9649ZM37.3693 40.5688C37.0838 40.5688 36.7982 40.5688 36.5126 40.5688H35.6538C35.406 40.5688 35.2969 40.458 35.3788 40.2092C35.658 39.352 36.0087 38.5198 36.3551 37.6898C36.3824 37.627 36.4055 37.5413 36.4937 37.5497C36.5819 37.558 36.6008 37.6375 36.626 37.7023C36.9599 38.5512 37.2979 39.4001 37.6234 40.2531C37.7011 40.4747 37.5625 40.5605 37.363 40.5605L37.3693 40.5688Z" fill="#969696"/>
<defs>
<linearGradient id="paint0_linear_2227_479" x1="20.9584" y1="84.3396" x2="20.9584" y2="33.5641" gradientUnits="userSpaceOnUse">
<stop stop-color="#F2F2F2"/>
<stop offset="1" stop-color="#979797"/>
</linearGradient>
<linearGradient id="paint1_linear_2227_479" x1="0" y1="27.857" x2="43.8608" y2="27.857" gradientUnits="userSpaceOnUse">
<stop stop-color="#F2F2F2"/>
<stop offset="1" stop-color="#979797"/>
</linearGradient>
<linearGradient id="paint2_linear_2227_479" x1="44.7825" y1="0" x2="44.7825" y2="35.4448" gradientUnits="userSpaceOnUse">
<stop stop-color="#F2F2F2"/>
<stop offset="1" stop-color="#979797"/>
</linearGradient>
<linearGradient id="paint3_linear_2227_479" x1="79.2717" y1="51.4643" x2="38.4908" y2="51.4643" gradientUnits="userSpaceOnUse">
<stop stop-color="#F2F2F2"/>
<stop offset="1" stop-color="#979797"/>
</linearGradient>
</defs>
</svg>
