<svg width="1400" height="147" viewBox="0 0 1400 147" fill="none" xmlns="http://www.w3.org/2000/svg">
<g clip-path="url(#clip0_2023_959)">
<mask id="mask0_2023_959" style="mask-type:luminance" maskUnits="userSpaceOnUse" x="0" y="0" width="1400" height="147">
<path d="M1400 0H0V146.269H1400V0Z" fill="white"/>
</mask>
<g mask="url(#mask0_2023_959)">
<path d="M336.427 13.9156L288.798 64.9395C307.772 87.5138 326.746 110.165 345.876 132.663H320.861L270.366 71.5109V132.663H250.462V13.9156H270.366V59.2188C284.228 44.1435 297.937 28.9909 311.644 13.9156H336.427ZM467.389 110.629H410.854L402.721 132.663H381.501L429.363 13.9156H449.19L496.974 132.663H475.986L467.389 110.629ZM418.211 92.7708H460.807L439.199 37.7268L418.211 92.7708ZM593.24 132.895C585.323 133.124 577.441 131.753 570.069 128.863C562.698 125.972 555.987 121.622 550.343 116.076C544.699 110.528 540.239 103.899 537.229 96.5853C534.22 89.2719 532.724 81.4264 532.832 73.5209C532.832 57.5281 539.196 42.1903 550.525 30.8816C561.853 19.5729 577.219 13.2199 593.24 13.2199C609.261 13.2199 624.627 19.5729 635.955 30.8816C647.284 42.1903 653.648 57.5281 653.648 73.5209C653.715 81.4376 652.177 89.2859 649.126 96.5936C646.075 103.901 641.574 110.516 635.893 116.042C630.214 121.568 623.472 125.889 616.075 128.745C608.678 131.601 600.78 132.934 592.853 132.663L593.24 132.895ZM593.24 32.3925C587.862 32.2817 582.518 33.273 577.54 35.305C572.56 37.337 568.052 40.3666 564.292 44.2067C560.532 48.0468 557.601 52.6157 555.68 57.631C553.758 62.6465 552.888 68.0018 553.122 73.3663C553.122 83.9872 557.349 94.173 564.873 101.683C572.396 109.193 582.601 113.413 593.24 113.413C603.88 113.413 614.084 109.193 621.607 101.683C629.131 94.173 633.357 83.9872 633.357 73.3663C633.617 67.9593 632.752 62.5572 630.816 57.5005C628.881 52.4438 625.917 47.8422 622.112 43.9855C618.307 40.1288 613.742 37.1008 608.706 35.0923C603.671 33.0837 598.272 32.1382 592.853 32.3151L593.24 32.3925ZM790.496 13.9156L742.866 64.9395C761.841 87.5138 780.815 110.165 799.944 132.663H774.929L724.434 71.5109V132.663H704.763V13.9156H724.667V59.2188C738.529 44.1435 752.238 28.9909 766.023 13.9156H790.496ZM921.613 110.629H865.077L856.557 132.663H835.725L883.432 13.9156H903.103L950.887 132.663H930.054L921.613 110.629ZM871.893 92.7708H914.488L893.268 37.9587L871.893 92.7708ZM1083.09 13.9156L1035.46 64.9395C1054.43 87.5138 1073.49 110.165 1092.53 132.663H1067.6L1017.03 71.5109V132.663H997.123V13.9156H1017.03V59.2188C1030.89 44.1435 1044.6 28.9909 1058.38 13.9156H1083.09ZM1214.05 110.629H1157.59L1148.99 132.663H1128.24L1176.02 13.9156H1195.69L1243.48 132.663H1222.65L1214.05 110.629ZM1164.56 92.7708H1207.08L1185.86 37.9587L1164.56 92.7708ZM1339.82 132.663C1331.91 132.882 1324.04 131.503 1316.68 128.608C1309.31 125.713 1302.62 121.361 1296.97 115.814C1291.34 110.269 1286.89 103.643 1283.88 96.3348C1280.87 89.0268 1279.38 81.1878 1279.5 73.289C1279.5 57.2962 1285.86 41.9583 1297.18 30.6497C1308.52 19.341 1323.88 12.9879 1339.9 12.9879C1355.92 12.9879 1371.29 19.341 1382.61 30.6497C1393.94 41.9583 1400.31 57.2962 1400.31 73.289C1400.41 81.1981 1398.9 89.0454 1395.88 96.359C1392.86 103.673 1388.39 110.301 1382.75 115.848C1377.1 121.394 1370.38 125.742 1363 128.632C1355.63 131.521 1347.74 132.892 1339.82 132.663ZM1339.82 32.1605C1334.45 32.0498 1329.1 33.041 1324.13 35.073C1319.14 37.105 1314.63 40.1347 1310.88 43.9747C1307.12 47.8148 1304.18 52.3837 1302.26 57.3991C1300.34 62.4145 1299.47 67.7699 1299.71 73.1343C1299.71 83.7552 1303.93 93.9411 1311.46 101.451C1318.98 108.961 1329.18 113.181 1339.82 113.181C1350.47 113.181 1360.66 108.961 1368.19 101.451C1375.72 93.9411 1379.94 83.7552 1379.94 73.1343C1380.17 67.7798 1379.28 62.4362 1377.36 57.4341C1375.44 52.4318 1372.5 47.8772 1368.74 44.0515C1364.98 40.226 1360.48 37.2106 1355.5 35.192C1350.53 33.1733 1345.19 32.1943 1339.82 32.3151V32.1605ZM109.82 146.269H146.451V109.702C146.451 100.003 142.592 90.7023 135.722 83.8447C128.852 76.987 119.535 73.1343 109.82 73.1343C100.361 73.1274 91.2683 76.7803 84.4516 83.3254C77.635 89.8704 73.6251 98.7981 73.2644 108.233V111.325C73.664 120.732 77.691 129.621 84.5036 136.133C91.316 142.645 100.387 146.277 109.82 146.269ZM73.2644 73.1343V108.233C73.2236 108.748 73.2236 109.264 73.2644 109.779C73.2236 110.294 73.2236 110.81 73.2644 111.325V146.346H0V0C19.0216 0.0105215 37.2934 7.40546 50.9516 20.6211C64.6099 33.8366 72.5837 51.8368 73.1869 70.815V73.1343H73.2644ZM73.2644 73.1343H108.89C118.859 73.1139 128.412 69.1463 135.454 62.1024C142.496 55.0585 146.451 45.5135 146.451 35.5622V0H110.748C100.786 0 91.2326 3.95034 84.1885 10.982C77.1443 18.0136 73.1869 27.5506 73.1869 37.4948V70.815C73.1869 71.5882 73.1869 72.3612 73.1869 73.1343H73.2644Z" fill="#121212"/>
</g>
</g>
<defs>
<clipPath id="clip0_2023_959">
<rect width="1400" height="146.269" fill="white"/>
</clipPath>
</defs>
</svg>
