<svg width="117" height="22" viewBox="0 0 117 22" fill="none" xmlns="http://www.w3.org/2000/svg">
<path fill-rule="evenodd" clip-rule="evenodd" d="M116.674 10.7048C116.669 8.18703 115.778 5.75096 114.157 3.82351C112.535 1.89607 110.286 0.600184 107.804 0.16294C105.321 -0.274304 102.764 0.17498 100.58 1.43207C98.3965 2.68915 96.7251 4.67386 95.8591 7.0384C94.9931 9.40295 94.9877 11.9965 95.8439 14.3646C96.7001 16.7327 98.3632 18.7244 100.542 19.9905C102.721 21.2566 105.276 21.7165 107.76 21.2895C110.244 20.8626 112.498 19.576 114.128 17.6553C113.459 18.9423 112.449 20.0212 111.209 20.7746V21.334H116.64V10.6964L116.674 10.7048ZM105.957 15.9601C104.926 15.9618 103.918 15.6582 103.061 15.0877C102.203 14.5172 101.534 13.7055 101.138 12.7552C100.742 11.8048 100.637 10.7586 100.837 9.7487C101.036 8.73882 101.531 7.81068 102.258 7.08165C102.986 6.35262 103.913 5.85544 104.923 5.65298C105.934 5.45052 106.981 5.55188 107.934 5.94424C108.887 6.3366 109.701 7.00233 110.275 7.85726C110.849 8.71218 111.156 9.7179 111.158 10.7472C111.158 12.1261 110.61 13.4485 109.635 14.4243C108.66 15.4001 107.337 15.9494 105.957 15.9516M15.9101 0.194348H21.4255V2.42359C21.4326 4.02763 21.0804 5.61293 20.3947 7.06341C19.7091 8.51389 18.7073 9.79282 17.4629 10.8066C18.6962 11.8113 19.6913 13.0766 20.3765 14.5114C21.0617 15.9463 21.42 17.515 21.4255 19.1048V21.334H15.9101V18.5453C15.8558 17.2047 15.2845 15.937 14.3158 15.0076C13.347 14.0783 12.0559 13.5592 10.7128 13.5592C9.36962 13.5592 8.07853 14.0783 7.10978 15.0076C6.14104 15.937 5.56975 17.2047 5.51551 18.5453V21.334H3.17923e-05V19.1048C0.00185777 17.5135 0.359328 15.9428 1.04636 14.5072C1.73338 13.0715 2.73263 11.8072 3.97118 10.8066C2.72752 9.80099 1.72525 8.52981 1.03804 7.08645C0.350826 5.6431 -0.00386675 4.06425 3.17923e-05 2.46597V0.194348H5.51551V2.98302C5.56975 4.32364 6.14104 5.59134 7.10978 6.52072C8.07853 7.4501 9.36962 7.96912 10.7128 7.96912C12.0559 7.96912 13.347 7.4501 14.3158 6.52072C15.2845 5.59134 15.8558 4.32364 15.9101 2.98302V0.194348ZM67.9847 7.98398C69.7666 12.7985 69.8599 17.1637 69.8599 21.334H64.336C64.4358 18.2283 64.1507 15.1223 63.4874 12.0865C62.5371 8.34846 60.7721 5.63608 59.1259 5.63608C57.4798 5.63608 55.7318 8.34846 54.7645 12.0865C54.0978 15.1217 53.8127 18.2282 53.9159 21.334H48.4344C48.4344 17.5367 48.5277 12.7985 50.3097 7.98398C52.0067 3.50007 55.0784 0.0248245 59.1429 0.0248245C63.2074 0.0248245 66.313 3.50007 67.9847 7.98398ZM90.6999 10.1115C91.3396 9.13101 91.6991 7.99459 91.7394 6.82494C91.7798 5.65529 91.4996 4.49683 90.929 3.47464C90.3466 2.48383 89.5163 1.66129 88.5196 1.0877C87.5229 0.514112 86.3941 0.209183 85.2439 0.202824H73.3644V21.334H86.6694C88.3716 21.3544 90.0122 20.699 91.2309 19.5117C92.4497 18.3245 93.1468 16.7026 93.1692 15.0023C93.1813 14.0489 92.9632 13.1066 92.5334 12.2552C92.1035 11.4039 91.4746 10.6685 90.6999 10.1115ZM78.8204 5.45807H84.7602C85.1986 5.49296 85.6103 5.68277 85.9213 5.99345C86.2323 6.30413 86.4223 6.71534 86.4573 7.15331C86.4507 7.39377 86.3964 7.63052 86.2974 7.8498C86.1984 8.06907 86.0567 8.26648 85.8806 8.43055C85.7045 8.59462 85.4975 8.72207 85.2717 8.80547C85.0458 8.88887 84.8056 8.92657 84.565 8.91637H78.8035L78.8204 5.45807ZM85.9142 16.0618H78.8374V12.5781H85.7784C86.2408 12.6072 86.678 12.7982 87.0133 13.1176C87.3485 13.437 87.5603 13.8642 87.6113 14.3242C87.6093 14.7771 87.4311 15.2116 87.1145 15.5358C86.7978 15.86 86.3674 16.0486 85.9142 16.0618ZM34.2978 0.0248245C32.4907 0.0210941 30.7119 0.472809 29.1259 1.33816C27.54 2.20351 26.1982 3.45453 25.2248 4.97542C24.2514 6.49631 23.6778 8.23792 23.5571 10.0391C23.4365 11.8402 23.7726 13.6426 24.5344 15.2795C25.2962 16.9164 26.4591 18.3349 27.9155 19.4037C29.3718 20.4724 31.0745 21.1569 32.866 21.3938C34.6575 21.6306 36.4798 21.4122 38.1644 20.7588C39.8489 20.1053 41.3412 19.0379 42.5031 17.6553C41.8317 18.9405 40.8226 20.0188 39.5842 20.7746V21.334H45.0148V10.6964C45.0014 7.86437 43.8669 5.15269 41.859 3.15332C39.8511 1.15394 37.1329 0.0292702 34.2978 0.0248245ZM34.2978 15.9601C33.2674 15.9634 32.2591 15.6615 31.4005 15.0924C30.5418 14.5233 29.8714 13.7127 29.474 12.763C29.0765 11.8133 28.97 10.7672 29.1677 9.75703C29.3654 8.74683 29.8586 7.81789 30.5849 7.08768C31.3111 6.35746 32.2378 5.85878 33.2478 5.65468C34.2578 5.45058 35.3057 5.55023 36.2589 5.94103C37.2122 6.33184 38.0281 6.99624 38.6034 7.85023C39.1786 8.70422 39.4875 9.70943 39.4908 10.7387C39.4931 11.4214 39.3604 12.0978 39.1004 12.7291C38.8405 13.3604 38.4583 13.9343 37.9759 14.4178C37.4934 14.9013 36.9202 15.2849 36.289 15.5467C35.6579 15.8084 34.9812 15.9431 34.2978 15.9431" fill="#FBFBFB"/>
</svg>
