<svg width="74" height="74" viewBox="0 0 74 74" fill="none" xmlns="http://www.w3.org/2000/svg">
<path fill-rule="evenodd" clip-rule="evenodd" d="M41.2139 0.276764V38.1573C41.207 38.9465 40.8886 39.701 40.3282 40.2564C39.7679 40.8117 39.0109 41.123 38.2222 41.1223H33.701C33.5932 41.1223 33.4898 41.1652 33.4136 41.2414C33.3374 41.3177 33.2946 41.4212 33.2946 41.529V73.2727C34.4153 73.3713 35.5432 73.4291 36.6855 73.4291C46.033 73.4423 55.0331 69.8848 61.8486 63.4829C68.664 57.081 72.7809 48.3173 73.3588 38.981C73.9366 29.6446 70.932 20.4396 64.9581 13.2449C58.9842 6.05021 50.4916 1.40844 41.2139 0.267137V0.276764ZM40.466 56.7414C39.5589 56.7414 38.6721 56.4722 37.9178 55.9678C37.1636 55.4634 36.5758 54.7465 36.2287 53.9077C35.8817 53.069 35.791 52.1461 35.9681 51.2557C36.1453 50.3654 36.5823 49.5476 37.224 48.9059C37.8656 48.2641 38.683 47.8272 39.5728 47.6504C40.4626 47.4736 41.3848 47.5648 42.2227 47.9125C43.0607 48.2603 43.7768 48.8489 44.2804 49.6039C44.7841 50.359 45.0527 51.2466 45.0522 52.1544C45.0541 52.7575 44.9367 53.355 44.7069 53.9126C44.4771 54.4701 44.1393 54.9767 43.713 55.403C43.2868 55.8294 42.7804 56.1671 42.2231 56.3968C41.6659 56.6265 41.0687 56.7437 40.466 56.7414ZM51.2208 56.7414C50.3136 56.7414 49.4268 56.4722 48.6726 55.9678C47.9183 55.4634 47.3305 54.7465 46.9835 53.9077C46.6364 53.069 46.5457 52.1461 46.7229 51.2557C46.9001 50.3654 47.3371 49.5476 47.9787 48.9059C48.6203 48.2641 49.4377 47.8272 50.3275 47.6504C51.2173 47.4736 52.1395 47.5648 52.9775 47.9125C53.8155 48.2603 54.5315 48.8489 55.0352 49.6039C55.5388 50.359 55.8074 51.2466 55.8069 52.1544C55.8088 52.7573 55.6916 53.3546 55.4619 53.912C55.2322 54.4694 54.8946 54.9758 54.4686 55.4022C54.0426 55.8285 53.5365 56.1663 52.9796 56.3961C52.4226 56.626 51.8257 56.7433 51.2232 56.7414H51.2208ZM61.9707 56.7414C61.0636 56.7414 60.1768 56.4722 59.4225 55.9678C58.6683 55.4634 58.0805 54.7465 57.7334 53.9077C57.3864 53.069 57.2957 52.1461 57.4729 51.2557C57.65 50.3654 58.087 49.5476 58.7287 48.9059C59.3703 48.2641 60.1877 47.8272 61.0775 47.6504C61.9673 47.4736 62.8895 47.5648 63.7274 47.9125C64.5654 48.2603 65.2815 48.8489 65.7851 49.6039C66.2888 50.359 66.5574 51.2466 66.5569 52.1544C66.5572 52.757 66.4388 53.3539 66.2084 53.9107C65.978 54.4675 65.6401 54.9734 65.2142 55.3995C64.7882 55.8255 64.2825 56.1633 63.726 56.3936C63.1694 56.6239 62.573 56.7421 61.9707 56.7414ZM36.7937 36.3403L36.8081 0H36.6855C27.6342 0.00155722 18.9029 3.35103 12.1699 9.40457C5.43689 15.4581 1.1774 23.7885 0.21018 32.7944C-0.757042 41.8004 1.63627 50.8463 6.93006 58.1934C12.2239 65.5404 20.0445 70.6701 28.8888 72.5964V39.6495C28.9055 38.8852 29.2138 38.1562 29.7503 37.6121C30.2869 37.0679 31.0112 36.7498 31.7747 36.723H36.3993C36.5011 36.7207 36.5984 36.68 36.6715 36.609C36.7446 36.5381 36.7883 36.4421 36.7937 36.3403ZM29.6439 30.2828C28.7374 30.2823 27.8514 30.0129 27.098 29.5086C26.3445 29.0042 25.7574 28.2877 25.4108 27.4495C25.0642 26.6112 24.9738 25.689 25.1509 24.7994C25.3281 23.9097 25.7648 23.0926 26.406 22.4513C27.0471 21.8101 27.8639 21.3734 28.753 21.1966C29.6421 21.0198 30.5636 21.1108 31.401 21.4581C32.2384 21.8053 32.9542 22.3933 33.4577 23.1475C33.9613 23.9018 34.2301 24.7886 34.2301 25.6957C34.2275 26.9094 33.7445 28.0726 32.8867 28.9305C32.0289 29.7885 30.8663 30.2713 29.6535 30.2732L29.6439 30.2828Z" fill="#FBFBFB"/>
</svg>
