<svg width="81" height="79" viewBox="0 0 81 79" fill="none" xmlns="http://www.w3.org/2000/svg">
<path d="M40.2701 11.3975L51.7628 0C58.3595 1.6858 64.3784 5.09038 69.1922 9.85897C72.9316 13.4943 75.8669 17.8579 77.8124 22.6735C79.7579 27.4891 80.6712 32.6518 80.4944 37.8346C80.6014 43.1344 79.6497 48.4029 77.6939 53.3382C75.7381 58.2736 72.8167 62.7786 69.097 66.5951C65.3785 70.4128 60.8916 73.4164 55.9262 75.4121C50.9607 77.4078 45.6272 78.3511 40.2701 78.181C34.8992 78.3487 29.5521 77.4047 24.5716 75.4096C19.591 73.4144 15.0869 70.4121 11.348 66.5951C7.61808 62.7888 4.69424 58.2841 2.74799 53.3454C0.801744 48.4067 -0.127727 43.1333 0.0140975 37.8346C-0.112254 32.6497 0.833483 27.494 2.79333 22.6834C4.75317 17.8729 7.68583 13.5089 11.4115 9.85897C16.1884 5.09132 22.1766 1.68549 28.7457 0L40.2701 11.3975ZM21.9517 57.4897C24.2345 60.0529 27.0579 62.0897 30.2229 63.4568C33.3879 64.8238 36.8175 65.4878 40.2701 65.402C43.7234 65.4814 47.153 64.8178 50.3214 63.4571C53.4898 62.0963 56.3214 60.0709 58.6203 57.5211C63.5372 52.1399 66.1544 45.0838 65.9222 37.8346C66.102 30.8473 63.4766 24.0738 58.6203 18.9958C56.2757 16.5241 53.4281 14.5717 50.2651 13.2675C47.1022 11.9632 43.6957 11.3366 40.2701 11.4289C36.8511 11.3121 33.4457 11.9119 30.2776 13.189C27.1096 14.466 24.2505 16.3915 21.8882 18.8388C17.0319 23.9169 14.4065 30.6903 14.5863 37.6776C14.3425 44.9307 16.9874 51.9885 21.9517 57.3327" fill="#FBFBFB"/>
</svg>
