<svg width="117" height="53" viewBox="0 0 117 53" fill="none" xmlns="http://www.w3.org/2000/svg">
<path d="M82.477 4.69622V6.62402H98.6594C99.3328 6.54104 100.016 6.5955 100.668 6.78421C101.32 6.97291 101.929 7.29204 102.458 7.72286C103.301 8.81467 103.684 10.201 103.522 11.5784V27.984C103.684 29.3614 103.301 30.7478 102.458 31.8396C101.929 32.2704 101.32 32.5895 100.668 32.7782C100.016 32.9669 99.3328 33.0214 98.6594 32.9384H90.8531C89.4856 32.9384 87.7382 32.9384 87.0544 31.4347C86.8463 30.7366 86.8376 29.9929 87.0292 29.29C87.2208 28.5871 87.605 27.9537 88.137 27.4635L98.6404 13.2364H82.477L76.0192 22.0078C74.9122 23.1699 74.2058 24.6646 74.0059 26.2682C74.1691 27.922 74.8787 29.4711 76.0192 30.6636L77.6526 32.842C79.0168 35.0585 80.8537 36.9361 83.0278 38.3362C85.6549 39.3166 88.4655 39.6856 91.2519 39.4158H98.2605C102.287 39.4158 108.365 39.4158 112.392 35.3289C116.418 31.242 116.456 25.1887 116.456 22.991V16.4558C116.456 14.2774 116.456 8.24336 112.392 4.15643C108.327 0.0695065 102.287 0.0309514 98.2605 0.0309514H87.0734C86.4476 -0.043203 85.8134 0.0162426 85.2116 0.205475C84.6097 0.394708 84.0535 0.709548 83.5786 1.12979C83.1556 1.61051 82.8385 2.17731 82.6485 2.79233C82.4586 3.40734 82.4001 4.05643 82.477 4.69622Z" fill="#FBFBFB"/>
<path d="M63.1038 13.1783H79.2672L59.875 39.4734H43.7116L63.1038 13.1783Z" fill="#FBFBFB"/>
<path d="M0.0647312 17.8245C-0.0503537 17.1888 -0.0115634 16.5342 0.177752 15.9171C0.367068 15.2999 0.701245 14.7387 1.15155 14.2817C1.60186 13.8246 2.15481 13.4854 2.76284 13.2933C3.37088 13.1011 4.01581 13.0617 4.64215 13.1786H31.7268C34.5086 12.9037 37.3155 13.2796 39.9319 14.2774C42.1182 15.6589 43.9686 17.5239 45.3451 19.7331L46.9405 21.95C48.0838 23.1117 48.801 24.6356 48.9728 26.2683C48.7915 27.9208 48.077 29.4661 46.9405 30.6637L40.4637 39.4351H24.3193L34.8797 25.208C35.4117 24.7178 35.7959 24.0844 35.9875 23.3815C36.1791 22.6785 36.1704 21.9348 35.9623 21.2367C35.2785 19.7331 33.5311 19.7331 32.1636 19.7331H19.457V52.5056H6.5225V19.7331H0.0647312V17.8245Z" fill="#FBFBFB"/>
</svg>
