<svg viewBox="0 0 117.701 35.6221" xmlns="http://www.w3.org/2000/svg" xmlns:xlink="http://www.w3.org/1999/xlink" width="117.700684" height="35.622070" fill="none" customFrame="#000000">
	<path id="Vector" d="M36.0238 8.06432L24.3905 8.06432L24.3905 35.6222L14.8424 35.6222L14.8424 8.06432L0 8.06432L0 0L43.4054 0L36.0238 8.06432ZM41.3992 8.06432L41.3992 35.6222L50.8661 35.6222L50.8661 22.4655L60.8159 22.4655L68.4829 14.8029L50.6269 14.8029L50.6269 10.5095L53.0721 8.06432L72.9299 8.06432L80.812 0L48.3792 0L41.3992 8.06432ZM75.1776 11.1526L75.1776 35.6222L84.7257 35.6222L84.7257 14.2015L104.544 35.6222L117.701 35.6222L117.701 0L108.313 0L108.313 25.5143L85.6037 0L75.1776 11.1526Z" fill="rgb(251,251,251)" fill-rule="evenodd" />
</svg>
