<svg width="19" height="19" viewBox="0 0 19 19" fill="none" xmlns="http://www.w3.org/2000/svg">
<path fill-rule="evenodd" clip-rule="evenodd" d="M12.4199 0.452637C17.7435 0.452701 19 1.65895 19 6.729V12.2808C18.9999 17.3509 17.733 18.5474 12.4092 18.5474H6.58105C1.25711 18.5474 4.79034e-06 17.3414 0 12.271V6.72021C0 1.65922 1.2669 0.452644 6.59082 0.452637H12.4199ZM14.1191 5.99463C14.1993 4.98517 13.2373 5.40088 13.2373 5.40088C13.231 5.40376 11.1518 6.35151 10.5381 6.64795C8.9367 7.38934 4.32524 9.49273 4.3125 9.49854C3.21692 9.9736 3.8584 10.4185 3.8584 10.4185C3.87863 10.4262 4.80188 10.7782 5.59473 11.0425C6.39636 11.3097 6.82422 11.0122 6.82422 11.0122C6.84293 10.9985 8.70419 9.63939 10.5918 8.19189C11.9279 7.18243 11.6068 8.01332 11.2861 8.36963C10.5914 9.14159 9.44241 10.3596 8.48047 11.3394C8.05367 11.7547 8.26716 12.1104 8.4541 12.2886C9.14886 12.9417 11.0464 14.2786 11.1533 14.3677C11.2877 14.487 12.0353 15.0206 12.4893 14.9019C12.9434 14.783 12.9971 14.1001 12.9971 14.1001C12.9998 14.081 13.3456 11.657 13.665 9.43896C13.8788 7.86536 14.0924 6.41033 14.1191 5.99463Z" fill="#B93F18"/>
</svg>
