<svg width="19" height="19" viewBox="0 0 19 19" fill="none" xmlns="http://www.w3.org/2000/svg">
<path d="M12.4199 0C17.7435 6.3908e-05 19 1.20631 19 6.27637V11.8281C18.9999 16.8983 17.733 18.0947 12.4092 18.0947H6.58105C1.25711 18.0947 4.79034e-06 16.8888 0 11.8184V6.26758C0 1.20658 1.2669 7.36347e-06 6.59082 0H12.4199ZM14.1191 5.54199C14.1993 4.53253 13.2373 4.94824 13.2373 4.94824C13.231 4.95112 11.1518 5.89888 10.5381 6.19531C8.9367 6.93671 4.32524 9.04009 4.3125 9.0459C3.21692 9.52097 3.8584 9.96582 3.8584 9.96582C3.87863 9.97352 4.80188 10.3256 5.59473 10.5898C6.39636 10.8571 6.82422 10.5596 6.82422 10.5596C6.84293 10.5459 8.70419 9.18676 10.5918 7.73926C11.9279 6.72979 11.6068 7.56069 11.2861 7.91699C10.5914 8.68895 9.44241 9.90698 8.48047 10.8867C8.05367 11.3021 8.26716 11.6578 8.4541 11.8359C9.14886 12.4891 11.0464 13.826 11.1533 13.915C11.2877 14.0344 12.0353 14.5679 12.4893 14.4492C12.9434 14.3304 12.9971 13.6475 12.9971 13.6475C12.9998 13.6284 13.3456 11.2043 13.665 8.98633C13.8788 7.41272 14.0924 5.95769 14.1191 5.54199Z" fill="#FBFBFB"/>
</svg>
