<svg width="124" height="40" viewBox="0 0 124 40" fill="none" xmlns="http://www.w3.org/2000/svg">
<path d="M102.709 5.04782C92.2578 2.23582 81.5249 0.612353 70.7126 0.207963C67.7576 0 64.9155 0 61.9417 0H61.2265C58.3468 0 55.3542 0 52.4933 0.207963C41.6812 0.61537 30.9487 2.23879 20.4967 5.04782C7.90505 8.67771 0 13.9146 0 19.7564C0 24.7097 5.64646 29.2093 15.0572 32.6879C19.3516 34.2393 23.7556 35.4653 28.2323 36.3556C32.2037 37.1686 36.495 37.8681 41.0498 38.3785C47.9242 39.1482 54.8365 39.5269 61.7535 39.5129C68.6705 39.5267 75.5827 39.148 82.4572 38.3785C86.9932 37.8681 91.2845 37.1686 95.2747 36.3556C99.7514 35.4653 104.155 34.2393 108.45 32.6879C117.861 29.2282 123.507 24.7097 123.507 19.7564C123.507 13.9146 115.602 8.65881 103.029 5.04782M25.8608 25.3525C24.5817 26.2325 23.1028 26.7751 21.5602 26.9304C20.0177 27.0856 18.461 26.8486 17.0335 26.2411C11.2929 23.8779 8.20619 21.0609 8.20619 18.036C8.20619 14.2549 13.1563 10.7762 21.3813 8.12945C33.0128 4.78743 45.0444 3.05732 57.1422 2.9871H57.7069H60.3042C59.7327 3.06524 59.1711 3.20468 58.6291 3.40302L58.0833 3.62989C55.9952 4.5491 53.9977 5.66312 52.1169 6.95729L51.9475 7.07073L51.8157 7.18416L28.9475 22.9893L25.8608 25.3525ZM83.4171 31.8372C76.2669 32.7128 69.0695 33.1421 61.8664 33.1228C54.6696 33.1416 47.4785 32.7122 40.3346 31.8372C34.3117 30.7974 37.2102 26.865 38.7724 25.1824C39.1488 24.7665 39.45 24.5018 39.5064 24.4451L42.6496 21.458C45.9434 18.1495 49.5195 15.1246 53.0579 12.2887C54.1496 11.419 55.2412 10.5683 56.3329 9.75533L56.6905 9.45284C58.1229 8.39235 59.8134 7.73926 61.5841 7.56228C63.3566 7.73181 65.049 8.38564 66.4777 9.45284C66.4777 9.45284 66.4777 9.45284 66.5906 9.45284C66.5906 9.45284 66.5906 9.45284 66.7036 9.45284C67.7952 10.2658 68.8869 11.1165 69.9785 11.9862C73.6675 15.1246 77.1683 18.1495 80.7633 21.4201C81.8173 22.4221 82.8713 23.4052 83.8876 24.4072C84.1317 24.6215 84.3641 24.8487 84.584 25.0878C86.1462 26.7326 89.1953 30.7596 83.0971 31.7994M106.379 26.1277C104.958 26.7432 103.404 26.9863 101.863 26.8342C100.323 26.6821 98.8459 26.1398 97.5709 25.258L94.183 22.8948L71.5219 7.12744L71.3713 7.01401C69.488 5.72392 67.4908 4.61011 65.4049 3.68661L64.8967 3.47865C64.3547 3.2803 63.7931 3.14086 63.2216 3.06272H65.819H66.3836C78.4821 3.12344 90.515 4.85374 102.145 8.20507C110.313 10.8519 115.32 14.3116 115.32 18.1116C115.32 21.1366 112.195 23.9535 106.775 26.2978" fill="#FBFBFB"/>
</svg>
