<svg width="19" height="19" viewBox="0 0 19 19" fill="none" xmlns="http://www.w3.org/2000/svg">
<path fill-rule="evenodd" clip-rule="evenodd" d="M12.4193 0.452515H6.59062C1.26666 0.452515 0 1.65886 0 6.71987V12.271C0 17.3414 1.25677 18.5478 6.58073 18.5478H12.4094C17.7334 18.5478 19 17.3508 19 12.2804V6.7293C19 1.65886 17.7432 0.452515 12.4193 0.452515ZM15.4571 12.8126C14.9327 11.3334 13.937 10.2365 12.4649 9.48493C12.5362 9.44141 12.5825 9.41047 12.6302 9.37871C12.6342 9.37591 12.6383 9.3732 12.6425 9.37039C13.8621 8.55903 14.6984 7.48963 15.0538 6.09916C15.0939 5.94236 15.0511 5.91332 14.8961 5.91332C14.3821 5.92162 13.8682 5.92244 13.3542 5.91332C13.3231 5.90811 13.2913 5.90888 13.2605 5.91558C13.2297 5.92227 13.2006 5.93476 13.175 5.9523C13.1493 5.96984 13.1276 5.99209 13.1111 6.01774C13.0946 6.04339 13.0837 6.07192 13.0789 6.10165C12.8688 6.71952 12.5187 7.28594 12.0536 7.76092C11.6259 8.20478 11.1355 8.55405 10.5109 8.71334C10.3237 8.76063 10.2775 8.71998 10.2775 8.53663C10.2827 8.13757 10.2827 7.73789 10.2827 7.33801C10.2827 6.93813 10.2827 6.53803 10.2879 6.13815C10.2905 5.949 10.2287 5.91332 10.0431 5.91332C9.54399 5.92493 9.04393 5.92328 8.54478 5.91332C8.38624 5.91332 8.33571 5.94816 8.34093 6.10663C8.345 6.51096 8.34365 6.91567 8.34229 7.32025C8.34162 7.52251 8.34093 7.72472 8.34093 7.92684V10.6555C8.34007 10.8845 8.32961 10.8911 8.09964 10.8081C7.96542 10.7582 7.83526 10.6989 7.71025 10.6306C6.85307 10.1577 6.35305 9.41436 6.01506 8.55654C5.71897 7.77739 5.56432 6.95594 5.55772 6.12736C5.55423 5.95646 5.49239 5.91332 5.31816 5.91332C4.77517 5.92493 4.23246 5.92493 3.69005 5.91332C3.51147 5.91332 3.47662 5.96559 3.48272 6.12322C3.52801 7.1893 3.69179 8.2363 4.08378 9.23929C4.56465 10.4763 5.32774 11.5051 6.51856 12.2094C7.59003 12.8392 8.77389 13.0722 10.0187 13.088C10.2208 13.0938 10.2853 13.0531 10.2853 12.8449C10.2762 12.4098 10.2773 11.9739 10.2782 11.538C10.2788 11.2568 10.2795 10.9756 10.2775 10.6945C10.2775 10.5592 10.3097 10.5153 10.4621 10.5385C10.7623 10.5864 11.055 10.67 11.3332 10.7874C12.3245 11.2222 12.9622 11.958 13.3368 12.9138C13.3486 12.9691 13.3824 13.018 13.431 13.0502C13.4796 13.0825 13.5395 13.0957 13.5981 13.0872C14.1846 13.0789 14.771 13.0789 15.3569 13.0872C15.5163 13.0889 15.5503 13.0416 15.4902 12.9105C15.4814 12.8905 15.475 12.8696 15.4687 12.8487C15.465 12.8366 15.4612 12.8245 15.4571 12.8126Z" fill="#B93F18"/>
</svg>
