<svg width="19" height="19" viewBox="0 0 19 19" fill="none" xmlns="http://www.w3.org/2000/svg">
<path fill-rule="evenodd" clip-rule="evenodd" d="M12.4193 0H6.59062C1.26666 0 0 1.20635 0 6.26736V11.8185C0 16.8889 1.25677 18.0952 6.58073 18.0952H12.4094C17.7334 18.0952 19 16.8983 19 11.8279V6.27679C19 1.20635 17.7432 0 12.4193 0ZM15.4571 12.36C14.9327 10.8808 13.937 9.78401 12.4649 9.03242C12.5362 8.9889 12.5825 8.95796 12.6302 8.9262C12.6342 8.9234 12.6383 8.92068 12.6425 8.91788C13.8621 8.10651 14.6984 7.03711 15.0538 5.64665C15.0939 5.48984 15.0511 5.46081 14.8961 5.46081C14.3821 5.4691 13.8682 5.46993 13.3542 5.46081C13.3231 5.4556 13.2913 5.45637 13.2605 5.46306C13.2297 5.46976 13.2006 5.48224 13.175 5.49979C13.1493 5.51733 13.1276 5.53958 13.1111 5.56523C13.0946 5.59088 13.0837 5.6194 13.0789 5.64913C12.8688 6.26701 12.5187 6.83342 12.0536 7.3084C11.6259 7.75226 11.1355 8.10154 10.5109 8.26083C10.3237 8.30811 10.2775 8.26746 10.2775 8.08411C10.2827 7.68506 10.2827 7.28538 10.2827 6.8855C10.2827 6.48561 10.2827 6.08552 10.2879 5.68563C10.2905 5.49648 10.2287 5.46081 10.0431 5.46081C9.54399 5.47242 9.04393 5.47076 8.54478 5.46081C8.38624 5.46081 8.33571 5.49565 8.34093 5.65411C8.345 6.05845 8.34365 6.46316 8.34229 6.86774C8.34162 7.06999 8.34093 7.2722 8.34093 7.47433V10.203C8.34007 10.432 8.32961 10.4386 8.09964 10.3556C7.96542 10.3057 7.83526 10.2463 7.71025 10.1781C6.85307 9.7052 6.35305 8.96185 6.01506 8.10402C5.71897 7.32488 5.56432 6.50343 5.55772 5.67485C5.55423 5.50395 5.49239 5.46081 5.31816 5.46081C4.77517 5.47242 4.23246 5.47242 3.69005 5.46081C3.51147 5.46081 3.47662 5.51308 3.48272 5.6707C3.52801 6.73678 3.69179 7.78378 4.08378 8.78678C4.56465 10.0238 5.32774 11.0526 6.51856 11.7569C7.59003 12.3866 8.77389 12.6197 10.0187 12.6355C10.2208 12.6413 10.2853 12.6006 10.2853 12.3924C10.2762 11.9572 10.2773 11.5214 10.2782 11.0855C10.2788 10.8043 10.2795 10.5231 10.2775 10.242C10.2775 10.1067 10.3097 10.0628 10.4621 10.086C10.7623 10.1339 11.055 10.2175 11.3332 10.3349C12.3245 10.7697 12.9622 11.5055 13.3368 12.4613C13.3486 12.5166 13.3824 12.5655 13.431 12.5977C13.4796 12.63 13.5395 12.6432 13.5981 12.6346C14.1846 12.6264 14.771 12.6264 15.3569 12.6346C15.5163 12.6364 15.5503 12.589 15.4902 12.4579C15.4814 12.438 15.475 12.4171 15.4687 12.3962C15.465 12.3841 15.4612 12.372 15.4571 12.36Z" fill="#FBFBFB"/>
</svg>
